<svg width="29" height="20" viewBox="0 0 29 20" fill="none" xmlns="http://www.w3.org/2000/svg">
<path d="M17.2764 7.06825L10.9053 14.1365H16.3684L22.7395 7.06825L16.3684 0H10.9053L17.2764 7.06825Z" fill="#1A2530"/>
<path d="M8.9757 5.55639L6.09889 4.60694L7.9025 7.1087L6.12869 9.59539L8.9757 8.64594L10.7048 11.1477V8.05815L13.6114 7.1087L10.7048 6.14419V3.0697L8.9757 5.55639ZM1.8081 17.0997C2.06021 17.0997 2.30796 17.2219 2.47312 17.427L2.53399 17.5012L3.31198 16.9645L3.24243 16.8772C2.89907 16.4451 2.37315 16.1964 1.8081 16.1964C0.812767 16.1964 0 16.9776 0 17.9332C0 18.8888 0.812767 19.67 1.8081 19.67C2.36879 19.67 2.89039 19.4256 3.23374 19.0023L3.30329 18.9151L2.52526 18.3783L2.46443 18.4525C2.29492 18.6576 2.05585 18.7754 1.80378 18.7754C1.34305 18.7754 0.951871 18.3914 0.951871 17.9376C0.956233 17.4838 1.34741 17.0997 1.80814 17.0997H1.8081ZM10.1633 18.1268L8.76507 16.2772H7.87604V19.5488H8.73918V17.7167L10.0425 19.5488H11.0265V16.2772H10.1633V18.1268ZM13.4999 18.6066C13.4999 18.6328 13.4651 18.6371 13.4477 18.6371C13.4346 18.6371 13.4085 18.6328 13.3955 18.6022L12.6733 16.2772H11.6727L12.7386 19.5488H14.1611L15.227 16.2772H14.2264L13.4999 18.6066ZM21.5791 18.2096C21.9279 18.009 22.1284 17.6426 22.0979 17.2413C22.0587 16.696 21.5834 16.2772 21.0167 16.2772H19.3468V19.5488H20.2188V18.371H20.6112C20.6504 18.371 20.6853 18.3754 20.7115 18.4103L21.2739 19.5488H22.2549L21.5791 18.2096ZM20.9705 17.5293H20.195V17.1658H20.9705C21.0762 17.1658 21.1643 17.2385 21.1643 17.3476C21.1643 17.4566 21.0762 17.5293 20.9705 17.5293ZM26.415 19.5488H29V18.6764H27.2767V18.2838H28.8277V17.4986H27.2767V17.1496H29V16.2772H26.415V19.5488ZM24.4232 17.5208C23.9597 17.4165 23.8254 17.3471 23.8254 17.1951V17.1864C23.8254 17.0648 23.9164 16.9693 24.1416 16.9693C24.4405 16.9693 24.6831 17.0648 25.008 17.2602L25.5278 16.6437C25.1639 16.3528 24.7264 16.1964 24.1589 16.1964C23.3532 16.1964 22.8724 16.648 22.8724 17.2732V17.2819C22.8724 17.9723 23.4399 18.1764 24.1546 18.337C24.6094 18.4412 24.735 18.5194 24.735 18.6583V18.667C24.735 18.8103 24.5748 18.8971 24.3235 18.8971C23.9337 18.8971 23.5525 18.7582 23.2233 18.4933L22.6992 19.1142C23.1107 19.4833 23.7084 19.67 24.3019 19.67C25.1162 19.67 25.688 19.2618 25.688 18.5758V18.5671C25.688 17.9376 25.1942 17.6901 24.4232 17.5208ZM5.43245 16.1964C4.46309 16.1964 3.67549 16.9776 3.67549 17.9332C3.67549 18.8932 4.46309 19.67 5.43245 19.67C6.40181 19.67 7.18942 18.8888 7.18942 17.9332C7.18942 16.9732 6.40181 16.1964 5.43245 16.1964ZM5.43245 18.7814C4.97487 18.7814 4.60446 18.411 4.60446 17.9534C4.60446 17.4958 4.97487 17.1254 5.43245 17.1254C5.89003 17.1254 6.26045 17.4958 6.26045 17.9534C6.26045 18.411 5.89003 18.7814 5.43245 18.7814ZM15.8733 19.5488H18.4582V18.6764H16.7349V18.2838H18.2859V17.4986H16.7349V17.1496H18.4582V16.2772H15.8733V19.5488Z" fill="#1A2530"/>
</svg>
