<svg width="27" height="18" viewBox="0 0 27 18" fill="none" xmlns="http://www.w3.org/2000/svg">
<path d="M24.7621 17.917C23.3963 17.917 22.5862 17.2181 22.5242 16.2113H23.8302C23.8302 16.5469 24.0162 16.9936 24.8241 17.0214C25.3841 17.0214 25.694 16.6859 25.694 16.4336C25.632 16.0425 25.134 16.0147 24.6382 15.9292C24.19 15.8762 23.7509 15.7641 23.3322 15.5957C23.1193 15.4766 22.9431 15.3015 22.8225 15.0894C22.702 14.8773 22.6417 14.6363 22.6482 14.3924C22.6482 13.4968 23.3963 12.7979 24.7001 12.7979C25.9441 12.7979 26.7521 13.4412 26.8119 14.4202H25.5701C25.5701 14.1701 25.5081 13.749 24.7621 13.749C24.2641 13.749 23.9542 13.8324 23.8922 14.1957C23.8922 14.7001 24.9481 14.6724 25.756 14.8669C26.502 15.0636 27 15.5381 27 16.2113C27 17.4425 26.0061 17.917 24.7621 17.917Z" fill="white"/>
<path d="M18.5401 15.5809C18.5401 16.2906 19.1045 16.8743 19.8375 16.8743C20.5143 16.8743 21.1329 16.2906 21.1329 15.5809C21.1213 15.2412 20.981 14.9186 20.7405 14.6784C20.5 14.4382 20.1772 14.2985 19.8375 14.2874C19.4946 14.2889 19.166 14.4255 18.9232 14.6677C18.6803 14.9098 18.5427 15.2379 18.5401 15.5809ZM19.7793 17.9158C19.4738 17.916 19.1713 17.8557 18.8893 17.7381C18.6073 17.6205 18.3514 17.4481 18.1366 17.2309C17.9217 17.0137 17.7521 16.756 17.6376 16.4728C17.5231 16.1895 17.466 15.8864 17.4696 15.5809C17.4696 14.2874 18.4839 13.2712 19.7793 13.2712C20.2874 13.2712 20.7393 13.3992 21.1329 13.6765V13.3216H22.2054V17.813H21.1329V17.5337C20.7289 17.7909 20.2582 17.9238 19.7793 17.9158ZM13.3564 15.5809C13.3564 16.2906 13.977 16.8743 14.6538 16.8743C15.3869 16.8743 15.9512 16.2906 15.9512 15.5809C15.9486 15.2379 15.811 14.9098 15.5681 14.6677C15.3253 14.4255 14.9968 14.2889 14.6538 14.2874C14.3139 14.2985 13.9909 14.4382 13.7501 14.6783C13.5092 14.9184 13.3685 15.241 13.3564 15.5809ZM15.9512 11.774H17.0779V17.813H15.9512V17.5337C15.5712 17.7975 15.1161 17.9315 14.6538 17.9158C13.3564 17.9158 12.286 16.8744 12.286 15.5809C12.286 14.2874 13.3564 13.2712 14.6538 13.2712C15.16 13.2712 15.6118 13.3992 15.9512 13.6765V11.774Z" fill="white"/>
<path d="M11.2621 17.917L11.2621 13.8217L11.2621 17.917Z" fill="white"/>
<path d="M11.2621 17.917L11.2621 13.8217" stroke="white"/>
<path d="M6.26286 15.5814C6.26286 16.2913 6.86569 16.8751 7.64877 16.8751C8.36969 16.8751 9.03468 16.2913 9.03468 15.5814C9.02126 15.2417 8.87083 14.9193 8.61366 14.6793C8.35649 14.4392 8.01171 14.2993 7.64877 14.2878C7.28242 14.2893 6.93148 14.426 6.67204 14.6681C6.4126 14.9103 6.26558 15.2385 6.26286 15.5814ZM7.58869 17.9167C7.26215 17.9172 6.93875 17.857 6.63727 17.7396C6.33578 17.6221 6.06222 17.4497 5.83248 17.2325C5.60274 17.0152 5.4214 16.7574 5.29898 16.4739C5.17655 16.1905 5.11548 15.8872 5.11932 15.5814C5.11932 14.2878 6.20278 13.2714 7.58869 13.2714C8.12938 13.2714 8.61207 13.3994 9.03468 13.6768V11.774H10.2383V17.8139H9.03468V17.5346C8.60285 17.7913 8.10019 17.9242 7.58869 17.9167Z" fill="white"/>
<path d="M1.14358 15.3435C1.14358 16.1258 1.80652 16.7692 2.52746 16.7692C3.31263 16.7692 3.91342 16.1258 3.91342 15.3435C3.91342 14.589 3.31263 13.9179 2.52746 13.9179C2.16472 13.9307 1.82017 14.0849 1.56333 14.3495C1.30649 14.6141 1.15648 14.9693 1.14358 15.3435ZM2.46739 17.917C1.14358 17.917 0 16.7692 0 15.3435C0 13.9179 1.14358 12.7979 2.46739 12.7979C3.01017 12.7979 3.49287 12.939 3.91342 13.2446V12.8534H5.11915V17.8037H3.91342V17.4959C3.55295 17.7759 3.01017 17.917 2.46739 17.917Z" fill="white"/>
<path d="M3.07149 10.7502L3.5834 11.774H9.72638L7.16681 8.19063L3.07149 10.7502Z" fill="white"/>
<path d="M11.2621 11.774V12.7979H12.286V11.774H16.3813L11.774 4.09532L7.67872 6.65489L11.2621 11.774Z" fill="white"/>
<path d="M15.8694 0L12.286 2.55957L17.917 11.774H23.5481L15.8694 0Z" fill="white"/>
</svg>
