<svg width="159" height="221" viewBox="0 0 159 221" fill="none" xmlns="http://www.w3.org/2000/svg">
<path d="M0 24C0 16.5449 0 12.8174 1.21793 9.87706C2.84183 5.95662 5.95662 2.84183 9.87706 1.21793C12.8174 0 16.5449 0 24 0H135C142.455 0 146.183 0 149.123 1.21793C153.043 2.84183 156.158 5.95662 157.782 9.87706C159 12.8174 159 16.5449 159 24V197C159 204.455 159 208.183 157.782 211.123C156.158 215.043 153.043 218.158 149.123 219.782C146.183 221 142.455 221 135 221H24C16.5449 221 12.8174 221 9.87706 219.782C5.95662 218.158 2.84183 215.043 1.21793 211.123C0 208.183 0 204.455 0 197V24Z" fill="white"/>
</svg>
