<svg width="26" height="14" viewBox="0 0 26 14" fill="none" xmlns="http://www.w3.org/2000/svg">
<path d="M7.70212 7.14166L10.2423 0H8.5632L7.40074 3.09921L7.65906 0H5.89385L3.35367 7.14166H4.98972L6.23829 3.68312L6.02302 7.05183L7.70212 7.14166ZM9.6826 7.14166L12.2228 0H10.6298L8.04655 7.14166H9.6826ZM14.2894 6.6925L14.2033 3.09921L16.6143 0.179665L14.2894 6.6925ZM26 4.1772L17.8198 6.37809L18.0351 5.70435H16.3129L16.8726 3.99754H18.3364L18.767 2.69497L17.3031 2.7848L17.8198 1.34748H19.2406L19.7142 0.0449161H15.1074L13.4283 2.11106L14.2463 0H12.6103L10.0701 7.14166H11.7492L12.8255 4.08737V7.14166H14.9782L7.27158 9.25272C6.46789 9.49226 5.75031 9.59709 5.11888 9.56714C4.48741 9.53718 3.99948 9.35751 3.65505 9.02814C2.88008 8.42928 2.60738 7.51595 2.83703 6.28826C2.98053 5.47977 3.29624 4.70124 3.78421 3.95262C2.6361 5.21027 1.78935 6.2733 1.24403 7.14166C0.641279 8.06995 0.253794 8.98323 0.0815787 9.88155C-0.0906368 10.7799 0.0098079 11.5135 0.382956 12.0824C1.38753 13.8192 3.58328 13.939 6.9702 12.4418L26 4.1772Z" fill="#1A2530"/>
</svg>
