<svg width="24" height="24" viewBox="0 0 24 24" fill="none" xmlns="http://www.w3.org/2000/svg">
<path d="M24 12.2737C24.0011 11.4559 23.9305 10.6396 23.7892 9.83374H12.2429V14.4553H18.8561C18.7208 15.1934 18.4343 15.897 18.0141 16.5237C17.5938 17.1504 17.0484 17.6872 16.4108 18.1018V21.1017H20.3576C22.6686 19.0134 24 15.9252 24 12.2737Z" fill="#4285F4"/>
<path d="M12.2429 23.9999C15.5469 23.9999 18.3289 22.9366 20.3576 21.1033L16.4108 18.1034C15.3123 18.8334 13.8975 19.25 12.2429 19.25C9.04939 19.25 6.33883 17.1401 5.36956 14.2969H1.30371V17.3884C2.32275 19.3758 3.88534 21.0465 5.81702 22.214C7.7487 23.3815 9.97345 23.9998 12.2429 23.9999Z" fill="#34A853"/>
<path d="M5.36955 14.297C4.85713 12.8071 4.85713 11.1937 5.36955 9.70381V6.61224H1.30371C0.446457 8.28411 0 10.1293 0 12.0004C0 13.8715 0.446457 15.7167 1.30371 17.3886L5.36955 14.297Z" fill="#FBBC04"/>
<path d="M12.2429 4.75063C13.9889 4.72267 15.676 5.36924 16.9396 6.55057L20.4341 3.12568C18.2182 1.08588 15.2827 -0.03401 12.2429 0.000787286C9.97345 0.000888658 7.7487 0.619191 5.81702 1.78667C3.88534 2.95414 2.32275 4.62484 1.30371 6.61224L5.36956 9.7038C6.33883 6.86056 9.04939 4.75063 12.2429 4.75063Z" fill="#EA4335"/>
</svg>
