<svg width="87" height="85" viewBox="0 0 87 85" fill="none" xmlns="http://www.w3.org/2000/svg">
<path d="M0 24C0 16.5449 0 12.8174 1.21793 9.87706C2.84183 5.95662 5.95662 2.84183 9.87706 1.21793C12.8174 0 16.5449 0 24 0H63C70.4551 0 74.1826 0 77.1229 1.21793C81.0434 2.84183 84.1582 5.95662 85.7821 9.87706C87 12.8174 87 16.5449 87 24V61C87 68.4551 87 72.1826 85.7821 75.1229C84.1582 79.0434 81.0434 82.1582 77.1229 83.7821C74.1826 85 70.4551 85 63 85H24C16.5449 85 12.8174 85 9.87706 83.7821C5.95662 82.1582 2.84183 79.0434 1.21793 75.1229C0 72.1826 0 68.4551 0 61V24Z" fill="white"/>
</svg>
