<svg width="15" height="14" viewBox="0 0 15 14" fill="none" xmlns="http://www.w3.org/2000/svg">
<path fill-rule="evenodd" clip-rule="evenodd" d="M2.5 5C3.88071 5 5 3.88071 5 2.5C5 1.11929 3.88071 0 2.5 0C1.11929 0 0 1.11929 0 2.5C0 3.88071 1.11929 5 2.5 5ZM12.5 14C13.8807 14 15 12.8807 15 11.5C15 10.1193 13.8807 9 12.5 9C11.1193 9 10 10.1193 10 11.5C10 12.8807 11.1193 14 12.5 14ZM5 11.5C5 12.8807 3.88071 14 2.5 14C1.11929 14 0 12.8807 0 11.5C0 10.1193 1.11929 9 2.5 9C3.88071 9 5 10.1193 5 11.5ZM12.5 5C13.8807 5 15 3.88071 15 2.5C15 1.11929 13.8807 0 12.5 0C11.1193 0 10 1.11929 10 2.5C10 3.88071 11.1193 5 12.5 5Z" fill="#1A2530"/>
</svg>
