<svg width="39" height="4" viewBox="0 0 39 4" fill="none" xmlns="http://www.w3.org/2000/svg">
<path d="M2.00969 1.8152L2.64987 2.49591L3.21712 3.29006L2.79574 3.59799L2.21228 2.81194L1.76658 1.99348L1.88814 1.90434L2.00969 1.8152ZM1.76658 1.8152L1.88814 1.90434L2.00969 1.99348L1.56399 2.81194L0.980534 3.59799L0.559148 3.29006L1.1264 2.49591L1.76658 1.8152ZM0.153968 1.06967L1.09398 1.3614L1.93676 1.75848L1.88814 1.90434L1.83951 2.05021L0.923809 1.87193L0 1.56399L0.153968 1.06967ZM2.15555 0V0.980534L2.0421 1.90434H1.88814H1.73417L1.62072 0.980534V0H2.15555ZM3.6223 1.06967L3.77627 1.56399L2.85246 1.87193L1.93676 2.05021L1.88814 1.90434L1.83951 1.75848L2.68229 1.3614L3.6223 1.06967Z" fill="#707B81"/>
<path d="M6.64709 1.8152L7.28728 2.49591L7.85453 3.29006L7.43314 3.59799L6.84968 2.81194L6.40399 1.99348L6.52554 1.90434L6.64709 1.8152ZM6.40399 1.8152L6.52554 1.90434L6.64709 1.99348L6.2014 2.81194L5.61794 3.59799L5.19655 3.29006L5.7638 2.49591L6.40399 1.8152ZM4.79137 1.06967L5.73139 1.3614L6.57416 1.75848L6.52554 1.90434L6.47692 2.05021L5.56121 1.87193L4.6374 1.56399L4.79137 1.06967ZM6.79296 0V0.980534L6.67951 1.90434H6.52554H6.37157L6.25812 0.980534V0H6.79296ZM8.25971 1.06967L8.41368 1.56399L7.48987 1.87193L6.57416 2.05021L6.52554 1.90434L6.47692 1.75848L7.31969 1.3614L8.25971 1.06967Z" fill="#707B81"/>
<path d="M11.2845 1.8152L11.9247 2.49591L12.4919 3.29006L12.0705 3.59799L11.4871 2.81194L11.0414 1.99348L11.1629 1.90434L11.2845 1.8152ZM11.0414 1.8152L11.1629 1.90434L11.2845 1.99348L10.8388 2.81194L10.2553 3.59799L9.83396 3.29006L10.4012 2.49591L11.0414 1.8152ZM9.42878 1.06967L10.3688 1.3614L11.2116 1.75848L11.1629 1.90434L11.1143 2.05021L10.1986 1.87193L9.27481 1.56399L9.42878 1.06967ZM11.4304 0V0.980534L11.3169 1.90434H11.1629H11.009L10.8955 0.980534V0H11.4304ZM12.8971 1.06967L13.0511 1.56399L12.1273 1.87193L11.2116 2.05021L11.1629 1.90434L11.1143 1.75848L11.9571 1.3614L12.8971 1.06967Z" fill="#707B81"/>
<path d="M15.9219 1.8152L16.5621 2.49591L17.1293 3.29006L16.708 3.59799L16.1245 2.81194L15.6788 1.99348L15.8004 1.90434L15.9219 1.8152ZM15.6788 1.8152L15.8004 1.90434L15.9219 1.99348L15.4762 2.81194L14.8927 3.59799L14.4714 3.29006L15.0386 2.49591L15.6788 1.8152ZM14.0662 1.06967L15.0062 1.3614L15.849 1.75848L15.8004 1.90434L15.7517 2.05021L14.836 1.87193L13.9122 1.56399L14.0662 1.06967ZM16.0678 0V0.980534L15.9543 1.90434H15.8004H15.6464L15.5329 0.980534V0H16.0678ZM17.5345 1.06967L17.6885 1.56399L16.7647 1.87193L15.849 2.05021L15.8004 1.90434L15.7517 1.75848L16.5945 1.3614L17.5345 1.06967Z" fill="#707B81"/>
<path d="M23.3212 1.8152L23.9614 2.49591L24.5286 3.29006L24.1072 3.59799L23.5238 2.81194L23.0781 1.99348L23.1996 1.90434L23.3212 1.8152ZM23.0781 1.8152L23.1996 1.90434L23.3212 1.99348L22.8755 2.81194L22.292 3.59799L21.8706 3.29006L22.4379 2.49591L23.0781 1.8152ZM21.4655 1.06967L22.4055 1.3614L23.2482 1.75848L23.1996 1.90434L23.151 2.05021L22.2353 1.87193L21.3115 1.56399L21.4655 1.06967ZM23.467 0V0.980534L23.3536 1.90434H23.1996H23.0457L22.9322 0.980534V0H23.467ZM24.9338 1.06967L25.0878 1.56399L24.1639 1.87193L23.2482 2.05021L23.1996 1.90434L23.151 1.75848L23.9938 1.3614L24.9338 1.06967Z" fill="#707B81"/>
<path d="M27.9586 1.8152L28.5988 2.49591L29.166 3.29006L28.7446 3.59799L28.1612 2.81194L27.7155 1.99348L27.837 1.90434L27.9586 1.8152ZM27.7155 1.8152L27.837 1.90434L27.9586 1.99348L27.5129 2.81194L26.9294 3.59799L26.508 3.29006L27.0753 2.49591L27.7155 1.8152ZM26.1029 1.06967L27.0429 1.3614L27.8856 1.75848L27.837 1.90434L27.7884 2.05021L26.8727 1.87193L25.9489 1.56399L26.1029 1.06967ZM28.1044 0V0.980534L27.991 1.90434H27.837H27.6831L27.5696 0.980534V0H28.1044ZM29.5712 1.06967L29.7252 1.56399L28.8014 1.87193L27.8856 2.05021L27.837 1.90434L27.7884 1.75848L28.6312 1.3614L29.5712 1.06967Z" fill="#707B81"/>
<path d="M32.596 1.8152L33.2362 2.49591L33.8034 3.29006L33.382 3.59799L32.7986 2.81194L32.3529 1.99348L32.4744 1.90434L32.596 1.8152ZM32.3529 1.8152L32.4744 1.90434L32.596 1.99348L32.1503 2.81194L31.5668 3.59799L31.1454 3.29006L31.7127 2.49591L32.3529 1.8152ZM30.7403 1.06967L31.6803 1.3614L32.5231 1.75848L32.4744 1.90434L32.4258 2.05021L31.5101 1.87193L30.5863 1.56399L30.7403 1.06967ZM32.7418 0V0.980534L32.6284 1.90434H32.4744H32.3205L32.207 0.980534V0H32.7418ZM34.2086 1.06967L34.3626 1.56399L33.4388 1.87193L32.5231 2.05021L32.4744 1.90434L32.4258 1.75848L33.2686 1.3614L34.2086 1.06967Z" fill="#707B81"/>
<path d="M37.2334 1.8152L37.8736 2.49591L38.4408 3.29006L38.0194 3.59799L37.436 2.81194L36.9903 1.99348L37.1118 1.90434L37.2334 1.8152ZM36.9903 1.8152L37.1118 1.90434L37.2334 1.99348L36.7877 2.81194L36.2042 3.59799L35.7828 3.29006L36.3501 2.49591L36.9903 1.8152ZM35.3777 1.06967L36.3177 1.3614L37.1605 1.75848L37.1118 1.90434L37.0632 2.05021L36.1475 1.87193L35.2237 1.56399L35.3777 1.06967ZM37.3793 0V0.980534L37.2658 1.90434H37.1118H36.9579L36.8444 0.980534V0H37.3793ZM38.846 1.06967L39 1.56399L38.0762 1.87193L37.1605 2.05021L37.1118 1.90434L37.0632 1.75848L37.906 1.3614L38.846 1.06967Z" fill="#707B81"/>
</svg>
