<svg width="375" height="106" viewBox="0 0 375 106" fill="none" xmlns="http://www.w3.org/2000/svg">
<g filter="url(#filter0_d_2040_7211)">
<path d="M121.662 20.5C66.789 21.7 17.6903 7.33333 0 0V106H375V0C347.964 19.5 276.869 20 255.34 20C233.812 20 229.806 23 229.806 31.5C229.806 40 234.385 63.1784 207.777 66.5C155.708 73 145.54 55.5 144.693 44.5C143.692 31.5 146.195 20.5 121.662 20.5Z" fill="white"/>
</g>
<path fill-rule="evenodd" clip-rule="evenodd" d="M44.058 56.6529C42.8608 55.6734 41.1392 55.6734 39.942 56.6529L33.7673 61.7049C33.298 62.0889 33.4671 62.8437 34.0554 62.9908C35.0513 63.2397 35.75 64.1346 35.75 65.1612V70C35.75 71.7949 37.2051 73.25 39 73.25H45C46.7949 73.25 48.25 71.7949 48.25 70V65.1612C48.25 64.1346 48.9487 63.2397 49.9446 62.9908C50.5329 62.8437 50.702 62.0889 50.2327 61.7049L44.058 56.6529ZM38.9921 55.4919C40.7419 54.0603 43.2581 54.0603 45.0079 55.4919L51.1826 60.544C52.6067 61.7092 52.0936 63.9997 50.3085 64.446C49.9802 64.528 49.75 64.8229 49.75 65.1612V70C49.75 72.6234 47.6234 74.75 45 74.75H39C36.3766 74.75 34.25 72.6234 34.25 70V65.1612C34.25 64.8229 34.0198 64.528 33.6915 64.446C31.9064 63.9997 31.3933 61.7092 32.8174 60.544L38.9921 55.4919Z" fill="#5B9EE1"/>
<path fill-rule="evenodd" clip-rule="evenodd" d="M42 66.75C41.3096 66.75 40.75 67.3096 40.75 68C40.75 68.6904 41.3096 69.25 42 69.25C42.6904 69.25 43.25 68.6904 43.25 68C43.25 67.3096 42.6904 66.75 42 66.75ZM39.25 68C39.25 66.4812 40.4812 65.25 42 65.25C43.5188 65.25 44.75 66.4812 44.75 68C44.75 69.5188 43.5188 70.75 42 70.75C40.4812 70.75 39.25 69.5188 39.25 68Z" fill="#5B9EE1"/>
<path fill-rule="evenodd" clip-rule="evenodd" d="M110.696 56C113.871 56 116 58.98 116 61.755C116 67.388 107.161 72 107 72C106.839 72 98 67.388 98 61.755C98 58.98 100.129 56 103.304 56C105.119 56 106.311 56.905 107 57.711C107.689 56.905 108.881 56 110.696 56Z" stroke="#707B81" stroke-width="1.5" stroke-linecap="round" stroke-linejoin="round"/>
<path d="M275.24 60.9752L274.494 61.0598L275.24 60.9752ZM275.687 64.9153L276.432 64.8307V64.8307L275.687 64.9153ZM262.313 64.9153L261.568 64.8307L261.568 64.8307L262.313 64.9153ZM262.76 60.9752L263.506 61.0598L262.76 60.9752ZM261.448 66.8721L260.877 66.386H260.877L261.448 66.8721ZM276.552 66.8721L275.981 67.3583L276.552 66.8721ZM271.27 56.3737H270.52C270.52 56.6942 270.724 56.9794 271.027 57.0832L271.27 56.3737ZM266.73 56.3737L266.973 57.0832C267.276 56.9794 267.48 56.6942 267.48 56.3737H266.73ZM272.702 72.2632C272.848 71.8753 272.651 71.4431 272.263 71.2977C271.875 71.1523 271.443 71.3489 271.298 71.7368L272.702 72.2632ZM266.702 71.7368C266.557 71.3489 266.125 71.1523 265.737 71.2977C265.349 71.4431 265.152 71.8753 265.298 72.2632L266.702 71.7368ZM274.777 69.25H263.223V70.75H274.777V69.25ZM274.494 61.0598L274.942 64.9998L276.432 64.8307L275.985 60.8906L274.494 61.0598ZM263.058 64.9998L263.506 61.0598L262.015 60.8906L261.568 64.8307L263.058 64.9998ZM262.019 67.3583C262.596 66.6801 262.96 65.8652 263.058 64.9998L261.568 64.8307C261.505 65.3846 261.271 65.9231 260.877 66.386L262.019 67.3583ZM274.942 64.9998C275.04 65.8652 275.404 66.6801 275.981 67.3583L277.123 66.386C276.729 65.9231 276.495 65.3846 276.432 64.8307L274.942 64.9998ZM263.223 69.25C262.568 69.25 262.104 68.926 261.891 68.5492C261.684 68.1854 261.687 67.748 262.019 67.3583L260.877 66.386C260.111 67.285 260.088 68.4116 260.586 69.2895C261.077 70.1544 262.049 70.75 263.223 70.75V69.25ZM274.777 70.75C275.951 70.75 276.923 70.1544 277.414 69.2895C277.912 68.4116 277.889 67.285 277.123 66.386L275.981 67.3583C276.313 67.748 276.316 68.1854 276.109 68.5492C275.896 68.926 275.432 69.25 274.777 69.25V70.75ZM272.02 56.3737V56.2699H270.52V56.3737H272.02ZM275.985 60.8906C275.706 58.4303 273.881 56.4748 271.513 55.6641L271.027 57.0832C272.944 57.7396 274.291 59.271 274.494 61.0598L275.985 60.8906ZM267.48 56.3737V56.2699H265.98V56.3737H267.48ZM263.506 61.0598C263.709 59.271 265.056 57.7396 266.973 57.0832L266.487 55.6641C264.119 56.4748 262.294 58.4303 262.015 60.8906L263.506 61.0598ZM269 54.75C269.839 54.75 270.52 55.4305 270.52 56.2699H272.02C272.02 54.6021 270.668 53.25 269 53.25V54.75ZM269 53.25C267.332 53.25 265.98 54.6021 265.98 56.2699H267.48C267.48 55.4305 268.161 54.75 269 54.75V53.25ZM271.298 71.7368C270.975 72.5979 270.085 73.25 269 73.25V74.75C270.685 74.75 272.152 73.7325 272.702 72.2632L271.298 71.7368ZM269 73.25C267.915 73.25 267.025 72.5979 266.702 71.7368L265.298 72.2632C265.848 73.7325 267.315 74.75 269 74.75V73.25Z" fill="#707B81"/>
<path fill-rule="evenodd" clip-rule="evenodd" d="M328.386 67.6959C327.199 68.2895 326.75 68.9706 326.75 69.5C326.75 70.0294 327.199 70.7105 328.386 71.3041C329.528 71.8751 331.158 72.25 333 72.25C334.842 72.25 336.472 71.8751 337.614 71.3041C338.801 70.7105 339.25 70.0294 339.25 69.5C339.25 68.9706 338.801 68.2895 337.614 67.6959C336.472 67.1249 334.842 66.75 333 66.75C331.158 66.75 329.528 67.1249 328.386 67.6959ZM327.715 66.3543C329.106 65.6586 330.976 65.25 333 65.25C335.024 65.25 336.894 65.6586 338.285 66.3543C339.632 67.0275 340.75 68.0964 340.75 69.5C340.75 70.9036 339.632 71.9725 338.285 72.6457C336.894 73.3414 335.024 73.75 333 73.75C330.976 73.75 329.106 73.3414 327.715 72.6457C326.368 71.9725 325.25 70.9036 325.25 69.5C325.25 68.0964 326.368 67.0275 327.715 66.3543Z" fill="#707B81"/>
<path fill-rule="evenodd" clip-rule="evenodd" d="M333 55.75C331.205 55.75 329.75 57.2051 329.75 59C329.75 60.7949 331.205 62.25 333 62.25C334.795 62.25 336.25 60.7949 336.25 59C336.25 57.2051 334.795 55.75 333 55.75ZM328.25 59C328.25 56.3766 330.377 54.25 333 54.25C335.623 54.25 337.75 56.3766 337.75 59C337.75 61.6234 335.623 63.75 333 63.75C330.377 63.75 328.25 61.6234 328.25 59Z" fill="#707B81"/>
<defs>
<filter id="filter0_d_2040_7211" x="-5.5" y="-4" width="383" height="114" filterUnits="userSpaceOnUse" color-interpolation-filters="sRGB">
<feFlood flood-opacity="0" result="BackgroundImageFix"/>
<feColorMatrix in="SourceAlpha" type="matrix" values="0 0 0 0 0 0 0 0 0 0 0 0 0 0 0 0 0 0 127 0" result="hardAlpha"/>
<feOffset dx="-1.5"/>
<feGaussianBlur stdDeviation="2"/>
<feComposite in2="hardAlpha" operator="out"/>
<feColorMatrix type="matrix" values="0 0 0 0 0.513021 0 0 0 0 0.666927 0 0 0 0 0.820833 0 0 0 0.12 0"/>
<feBlend mode="normal" in2="BackgroundImageFix" result="effect1_dropShadow_2040_7211"/>
<feBlend mode="normal" in="SourceGraphic" in2="effect1_dropShadow_2040_7211" result="shape"/>
</filter>
</defs>
</svg>
