<svg width="28" height="16" viewBox="0 0 28 16" fill="none" xmlns="http://www.w3.org/2000/svg">
<path d="M20.1147 5.98278C22.3395 5.00395 23.7923 3.53402 23.8716 1.90338C23.8716 1.90338 23.2842 1.45083 21.3876 0.753055C19.7223 0.14025 18.4518 0 18.4518 0L18.4576 3.63325C18.4576 4.17616 18.2397 4.7303 17.8282 5.22086C16.5694 4.91697 15.1783 4.74639 13.719 4.74593H13.7181C12.258 4.74639 10.8652 4.91743 9.60499 5.22186C9.19356 4.73122 8.9751 4.17661 8.9751 3.63325L8.98058 0C8.98058 0 7.71093 0.14025 6.04456 0.753055C4.14813 1.45083 3.56173 1.90338 3.56173 1.90338C3.64031 3.53448 5.0937 5.00487 7.32098 5.98369C5.09562 6.96252 3.64286 8.43235 3.56411 10.0625C3.56411 10.0625 4.15105 10.5155 6.04749 11.2129C7.7134 11.8257 8.98342 11.9659 8.98342 11.9659L8.97757 8.33267C8.97757 7.78976 9.19548 7.23516 9.60746 6.74506C10.8662 7.0495 12.257 7.21953 13.7161 7.21953H13.7166C15.1773 7.21953 16.5704 7.04895 17.8302 6.74351C18.2416 7.23415 18.4596 7.78976 18.4596 8.33267L18.4547 11.9659C18.4547 11.9659 19.7247 11.8257 21.3906 11.2129C23.2871 10.5155 23.8739 10.0625 23.8739 10.0625C23.7948 8.43144 22.3415 6.96105 20.1147 5.98269V5.98278ZM13.7171 6.80025H13.7156L13.6741 6.79933C12.3566 6.79933 11.2826 6.4768 10.4948 5.98369C11.2826 5.48966 12.3572 5.16668 13.6771 5.16668L13.7176 5.16613H13.7196L13.761 5.16668C15.079 5.16668 16.1526 5.48921 16.9403 5.98223C16.1526 6.4758 15.078 6.79924 13.7587 6.79924L13.7171 6.80025ZM0.649466 15.9912C0.0112607 15.9912 2.24427e-05 15.5045 2.24427e-05 15.3169V14.4314C2.24427e-05 14.3777 -0.00436324 14.3063 0.109481 14.3063H0.43932C0.546403 14.3063 0.539551 14.3826 0.539551 14.4315V15.3168C0.539551 15.3799 0.551246 15.549 0.783412 15.549H1.33655C1.56424 15.549 1.57749 15.38 1.57749 15.3169V14.4314C1.57749 14.3826 1.5711 14.3063 1.67763 14.3063H2.00994C2.13054 14.3063 2.11985 14.3826 2.11985 14.4315V15.3168C2.11985 15.5045 2.10861 15.9912 1.46803 15.9912H0.649466ZM3.706 15.8843C3.48069 15.5809 3.15916 15.1988 2.83133 14.7951V15.8731C2.83133 15.9201 2.84303 15.9914 2.7311 15.9914H2.42319C2.31182 15.9914 2.32506 15.9201 2.32506 15.8731V14.4316C2.32506 14.3827 2.32013 14.3064 2.42328 14.3064H3.0233C3.19288 14.3064 3.43427 14.648 3.59261 14.8733C3.71477 15.0453 3.94054 15.3038 4.09203 15.4978V14.4316C4.09203 14.3827 4.08518 14.3064 4.1971 14.3064H4.53133C4.63887 14.3064 4.63201 14.3827 4.63201 14.4316V15.9914H4.01629C3.88435 15.9914 3.82624 16.0002 3.706 15.8843ZM6.24265 15.5481C6.51237 15.5481 6.49282 15.2892 6.49282 15.1708C6.49282 14.7736 6.38098 14.7579 6.20254 14.7579H5.35474V15.5481H6.24265ZM4.8343 15.9918V14.3093H6.32132C6.41223 14.3093 7.02111 14.2986 7.02111 14.9383C7.02111 15.5925 7.09237 15.9918 6.33457 15.9918H5.53309L5.35912 15.6395V15.9918H4.8343ZM7.60358 14.3201H8.97327C9.08959 14.3201 9.07396 14.3959 9.07396 14.5367C9.07396 14.6676 9.0916 14.7413 8.97327 14.7413H7.89093C7.86206 14.7413 7.76438 14.7258 7.76438 14.8283C7.76438 14.931 7.74428 14.9716 7.85329 14.9716H8.81055C8.81055 14.9716 8.94888 15.2349 8.9645 15.2794C8.98698 15.3195 8.9846 15.3576 8.9 15.3576H7.90902L7.75506 15.0585V15.5002C7.75506 15.6029 7.84689 15.5828 7.87329 15.5828H8.99776C9.1096 15.5828 9.10037 15.6605 9.10037 15.7876C9.10037 15.9244 9.1096 15.9996 8.99776 15.9996H7.57425C7.45602 15.9996 7.22431 15.964 7.22431 15.5941V14.6656C7.22431 14.5698 7.27566 14.3202 7.60358 14.3202V14.3201ZM10.6371 14.7532H9.9701C9.85918 14.7532 9.86302 14.7913 9.86302 14.825V15.1261H10.5501C10.8829 15.1261 10.8829 15.0429 10.8829 14.956C10.8829 14.7821 10.8697 14.7532 10.6371 14.7532ZM9.44382 14.3091H10.943C11.1438 14.3091 11.4356 14.307 11.4356 14.849C11.4356 15.2037 11.3604 15.2214 11.1995 15.3308C11.4698 15.3777 11.4341 15.7232 11.4341 15.9021C11.4341 15.9934 11.4008 15.9915 11.3735 15.9915H10.9342C10.8423 15.9915 10.8648 15.8463 10.8648 15.7706C10.8648 15.5629 10.749 15.5722 10.704 15.5722H10.0571C9.99495 15.4647 9.87435 15.2238 9.87435 15.2238V15.9221C9.87435 15.9827 9.81368 15.9915 9.79166 15.9915H9.35044C9.37438 15.9915 9.30503 15.9959 9.30503 15.9353V14.4542C9.30503 14.3492 9.37877 14.309 9.44373 14.309L9.44382 14.3091ZM13.8386 14.7861L13.562 15.2904L13.5864 15.3148H14.102L14.1289 15.2904C14.1108 15.2523 13.888 14.8287 13.8655 14.7836L13.8386 14.7861ZM14.017 14.3204C14.1264 14.3204 14.233 14.3693 14.3493 14.5945C14.4279 14.7548 14.9724 15.7385 15.0857 15.9443V16H14.5189L14.3557 15.7052H13.6666C13.6666 15.7052 13.5508 15.4399 13.5176 15.3666C13.4751 15.4355 13.2474 15.8685 13.1686 15.9999H12.6003V15.9643C12.7162 15.7459 13.5083 14.3204 13.5083 14.3204H14.017ZM16.5724 14.7532H15.9054C15.7939 14.7532 15.7983 14.7913 15.7983 14.825V15.1261H16.4854C16.8181 15.1261 16.8181 15.0429 16.8181 14.956C16.8181 14.7821 16.805 14.7532 16.5724 14.7532ZM15.3791 14.3091H16.8783C17.0791 14.3091 17.3714 14.307 17.3714 14.849C17.3714 15.2037 17.2961 15.2214 17.1347 15.3308C17.4045 15.3777 17.3689 15.7232 17.3689 15.9021C17.3689 15.9934 17.3356 15.9915 17.3088 15.9915H16.8695C16.7776 15.9915 16.8 15.8463 16.8 15.7706C16.8 15.5629 16.6843 15.5722 16.6392 15.5722H15.9923C15.9298 15.4647 15.8091 15.2238 15.8091 15.2238V15.9221C15.8091 15.9827 15.7495 15.9915 15.7269 15.9915H15.2853C15.3096 15.9915 15.2408 15.9959 15.2408 15.9353V14.4542C15.2408 14.3492 15.3146 14.309 15.379 14.309L15.3791 14.3091ZM18.6811 15.9912C18.5692 15.7816 18.259 15.2035 18.0493 14.8248V15.873C18.0493 15.9199 18.0557 15.9912 17.9496 15.9912H17.6457C17.5318 15.9912 17.5406 15.92 17.5406 15.873V14.4314C17.5406 14.3826 17.5342 14.3088 17.6457 14.3088H18.17C18.2481 14.3088 18.3591 14.2907 18.4847 14.5409C18.5785 14.7412 18.7774 15.1571 18.9132 15.3775C19.0535 15.1571 19.2567 14.7412 19.3506 14.5409C19.4733 14.2907 19.5822 14.3088 19.6692 14.3088H20.1911C20.2986 14.3088 20.2874 14.3826 20.2874 14.4314V15.873C20.2874 15.9199 20.3025 15.9912 20.1911 15.9912H19.8857C19.7743 15.9912 19.783 15.92 19.783 15.873V14.8248C19.5715 15.2035 19.2631 15.7816 19.1468 15.9912H18.6811ZM21.9603 15.5627C22.213 15.5627 22.2036 15.3023 22.2036 15.1278C22.2036 14.9715 22.2393 14.7261 21.9114 14.7261H21.3554C21.0299 14.7261 21.068 14.9715 21.068 15.1278C21.068 15.3023 21.0524 15.5627 21.3046 15.5627H21.9603ZM20.961 15.9957C20.4635 15.9957 20.4856 15.4621 20.4856 15.1171C20.4856 14.8 20.4499 14.3048 21.0724 14.3H22.1773C22.8018 14.3 22.7612 14.8019 22.7612 15.1171C22.7612 15.462 22.7862 15.9957 22.2814 15.9957H20.961ZM23.5931 15.9912C22.9544 15.9912 22.9436 15.5045 22.9436 15.3169V14.4314C22.9436 14.3777 22.9392 14.3063 23.0531 14.3063H23.3835C23.49 14.3063 23.4836 14.3826 23.4836 14.4315V15.3168C23.4836 15.3799 23.4949 15.549 23.7269 15.549H24.2802C24.5078 15.549 24.521 15.38 24.521 15.3169V14.4314C24.521 14.3826 24.5142 14.3063 24.6212 14.3063H24.9535C25.0741 14.3063 25.0635 14.3826 25.0635 14.4315V15.3168C25.0635 15.5045 25.0522 15.9912 24.4115 15.9912H23.5931ZM26.611 14.7532H25.944C25.8325 14.7532 25.8369 14.7913 25.8369 14.825V15.1261H26.524C26.8567 15.1261 26.8567 15.0429 26.8567 14.956C26.8567 14.7821 26.8436 14.7532 26.611 14.7532ZM25.4171 14.3091H26.9169C27.1177 14.3091 27.4104 14.307 27.4104 14.849C27.4104 15.2037 27.3342 15.2214 27.1734 15.3308C27.4437 15.3777 27.408 15.7232 27.408 15.9021C27.408 15.9934 27.3747 15.9915 27.3474 15.9915H26.9081C26.8167 15.9915 26.8386 15.8463 26.8386 15.7706C26.8386 15.5629 26.7229 15.5722 26.6784 15.5722H26.031C25.9688 15.4647 25.8482 15.2238 25.8482 15.2238V15.9221C25.8482 15.9827 25.7875 15.9915 25.7655 15.9915H25.3243C25.3482 15.9915 25.2794 15.9959 25.2794 15.9353V14.4542C25.2794 14.3492 25.3532 14.309 25.4171 14.309" fill="#1A2530"/>
</svg>
