<svg width="33" height="16" viewBox="0 0 33 16" fill="none" xmlns="http://www.w3.org/2000/svg">
<path d="M17.3458 0.0547427C17.2404 0.0702982 17.1392 0.458111 16.9357 0.660224C16.787 0.805801 16.6009 0.797004 16.5025 0.977232C16.4649 1.04428 16.477 1.15939 16.4348 1.26946C16.3514 1.49035 16.0592 1.50998 16.0592 1.75039C16.0581 2.01022 16.3027 2.05957 16.515 2.24419C16.6807 2.39224 16.6965 2.49447 16.8969 2.56657C17.0684 2.6245 17.323 2.43461 17.5524 2.50295C17.7404 2.55873 17.9205 2.59907 17.9632 2.79249C18.0007 2.97101 17.9605 3.24703 17.7322 3.21517C17.6553 3.20638 17.3213 3.09427 16.9119 3.13793C16.4172 3.19415 15.8529 3.35539 15.7976 3.90712C15.7672 4.21501 16.1486 4.57836 16.5167 4.50445C16.771 4.45467 16.6508 4.15429 16.789 4.00871C16.9708 3.82173 18.0007 4.66065 18.9575 4.66065C19.3605 4.66065 19.6602 4.55873 19.9579 4.24709C19.9858 4.22306 20.0196 4.17221 20.0626 4.16877C20.1033 4.17221 20.174 4.21222 20.1974 4.22917C20.9678 4.8486 21.5507 6.09153 24.3837 6.10569C24.7823 6.10805 25.2358 6.29847 25.6067 6.6364C25.9372 6.94193 26.1302 7.41771 26.3182 7.90003C26.602 8.62373 27.1096 9.32791 27.8802 10.1112C27.9221 10.1532 28.5565 10.6463 28.6073 10.6829C28.6151 10.6886 28.6619 10.7997 28.6455 10.8617C28.6269 11.3318 28.5585 12.6976 29.5769 12.7596C29.8258 12.7721 29.7608 12.597 29.7608 12.4769C29.7602 12.2387 29.7168 12.0024 29.842 11.7585C30.0135 11.4236 29.4784 11.2694 29.4939 10.545C29.5051 10.0048 29.0513 10.097 28.8213 9.68547C28.6886 9.4471 28.5707 9.32072 28.5791 9.02914C28.631 7.38831 28.23 6.30995 28.0302 6.04508C27.8741 5.84532 27.7451 5.76604 27.8875 5.67357C28.7377 5.11175 28.9304 4.58984 28.9304 4.58984C29.3826 3.52746 29.7889 2.55712 30.3495 2.12973C30.4621 2.04133 30.7518 1.82527 30.9292 1.74063C31.4525 1.49399 31.7274 1.34434 31.8796 1.19672C32.1197 0.962642 32.31 0.473988 32.0793 0.177899C31.7929 -0.187492 31.2973 0.102374 31.079 0.232182C29.5163 1.15939 29.286 2.79518 28.7448 3.73472C28.313 4.48514 27.6108 5.03655 26.9831 5.08161C26.513 5.11647 26.0053 5.02132 25.5004 4.79946C24.272 4.26092 23.6 3.56576 23.4408 3.44271C23.1109 3.18803 20.5492 0.672775 18.4732 0.570109C18.4732 0.570109 18.2155 0.0539918 18.1508 0.0458386C17.9991 0.0262066 17.8437 0.353728 17.7322 0.392027C17.6275 0.426571 17.4515 0.0373636 17.3458 0.0546355V0.0547427ZM8.20735 15.0656C8.012 15.0609 7.84604 14.9007 7.84604 14.7026L7.84668 8.22723H5.71237V15.3647C5.71237 15.7149 5.9958 16 6.34371 16H10.0735C10.4236 16 10.7037 15.7149 10.7037 15.3647V8.22712H8.57146L8.56974 14.7026C8.56974 14.9007 8.40378 15.0609 8.20735 15.0656ZM15.3523 8.22723H12.1228C11.74 8.22723 11.4288 8.53802 11.4288 8.92411V16H13.5652V9.50943C13.5655 9.46232 13.575 9.41573 13.5933 9.37233C13.6116 9.32892 13.6383 9.28955 13.6718 9.25645C13.7054 9.22336 13.7451 9.19719 13.7887 9.17945C13.8324 9.16171 13.8791 9.15273 13.9262 9.15305C14.1254 9.15305 14.2855 9.30688 14.2898 9.50395V16H16.4172V9.50395C16.4199 9.30688 16.5797 9.15315 16.7788 9.15315C16.9759 9.15315 17.1393 9.31053 17.1406 9.50932V16H19.2769V8.92411C19.2769 8.53802 18.9646 8.22712 18.5826 8.22712H15.3524L15.3523 8.22723ZM4.289 14.0469H2.13281V16H0V8.22723H4.30252C4.68765 8.22723 4.98835 8.54016 4.98835 8.92733V13.3462C4.98861 13.4382 4.9707 13.5294 4.93565 13.6144C4.90061 13.6995 4.84911 13.7768 4.78413 13.8419C4.71915 13.907 4.64195 13.9586 4.55696 13.9938C4.47198 14.029 4.38088 14.0471 4.28889 14.047L4.289 14.0469ZM2.85672 9.52294C2.85736 9.4749 2.84851 9.42721 2.83068 9.3826C2.81284 9.33798 2.78638 9.29733 2.7528 9.26296C2.71923 9.2286 2.6792 9.2012 2.63501 9.18234C2.59082 9.16348 2.54334 9.15352 2.4953 9.15305H2.13291V13.0844H2.4953C2.68368 13.0844 2.85844 12.9347 2.85672 12.7193V9.52294Z" fill="#1A2530"/>
<path d="M22.8577 16V14.0486H22.1326V16H20.0006V8.9241C20.0006 8.538 20.3118 8.22711 20.6946 8.22711H24.2959C24.6794 8.22711 24.9902 8.538 24.9902 8.9241V16H22.8577ZM22.8577 13.0858V9.50662C22.8526 9.30891 22.6934 9.1569 22.4943 9.1569C22.2971 9.1569 22.1346 9.31492 22.1326 9.51242V13.0858H22.8577Z" fill="#1A2530"/>
</svg>
