<svg width="40" height="10" viewBox="0 0 40 10" fill="none" xmlns="http://www.w3.org/2000/svg">
<path d="M8.32943 0H1.58888C0.711061 0 0 0.717619 0 1.60199V8.39969C0 9.28407 0.711061 10.0017 1.58888 10.0017H8.32943C9.20725 10.0017 9.91737 9.28407 9.91737 8.39969V1.60199C9.9183 0.716682 9.20725 0 8.32943 0Z" fill="#1677FF"/>
<path d="M8.16547 6.28013C7.76919 6.14617 7.23613 5.941 6.64311 5.72459C6.99911 5.09972 7.28391 4.38866 7.47128 3.61577H5.5161V2.90564H7.91065V2.50936H5.5161V1.3252H4.53897C4.36753 1.3252 4.36753 1.4957 4.36753 1.4957V2.50842H1.9458V2.90471H4.36753V3.61483H2.36738V4.01111H6.24589C6.10443 4.50389 5.91331 4.96762 5.68754 5.38826C4.42936 4.9695 3.08594 4.63036 2.24278 4.83928C1.70316 4.97324 1.3556 5.21214 1.15137 5.46321C0.214528 6.61271 0.88624 8.35898 2.86484 8.35898C4.03495 8.35898 5.16197 7.70132 6.0351 6.6174C7.33825 7.24882 9.91736 8.33368 9.91736 8.33368V6.7879C9.9183 6.7879 9.59415 6.76167 8.16547 6.28013ZM2.68029 7.69101C1.13731 7.69101 0.681073 6.46563 1.44366 5.79485C1.69848 5.56814 2.16315 5.45759 2.41048 5.43323C3.3267 5.34236 4.17548 5.69461 5.17696 6.18739C4.47339 7.11298 3.57684 7.69101 2.68029 7.69101Z" fill="white"/>
<path d="M21.5352 1.46427C21.5352 1.98141 21.9136 2.32991 22.4411 2.32991C22.9685 2.32991 23.347 1.98141 23.347 1.46427C23.347 0.956505 22.9685 0.598633 22.4411 0.598633C21.9136 0.598633 21.5352 0.956505 21.5352 1.46427Z" fill="#1677FF"/>
<path d="M20.5798 0.817383H19.0078V8.08163H20.5798V0.817383Z" fill="black"/>
<path d="M16.251 1.06641H14.1412L11.7832 8.08239H13.2362L13.6344 6.70898H16.132L16.5105 8.08239H18.371L16.251 1.06641ZM13.9623 5.56417L14.8973 2.3302H14.9366L15.8219 5.56417H13.9623Z" fill="black"/>
<path d="M23.2263 2.74805H21.6543V8.0824H23.2263V2.74805Z" fill="black"/>
<path d="M39.6573 2.75835L39.6667 2.74805H38.1846L37.2487 5.99232H37.1991L36.1245 2.74805H34.3633L36.4824 8.10208L35.5971 9.73405V9.7734H36.9799L39.6573 2.75835Z" fill="black"/>
<path d="M27.1379 2.6377C26.5608 2.6377 26.113 2.85691 25.6052 3.27474V2.74731H24.0332V9.77266H25.6052V8.03107C25.9041 8.1107 26.1823 8.15099 26.5205 8.15099C27.9239 8.15099 29.1877 7.11578 29.1877 5.27489C29.1877 3.62325 28.2724 2.6377 27.1379 2.6377ZM26.142 7.16543C25.9631 7.16543 25.7935 7.14576 25.6043 7.0858V4.20034C25.9331 3.97175 26.201 3.86214 26.5392 3.86214C27.1266 3.86214 27.5941 4.32963 27.5941 5.32548C27.5951 6.59865 26.9084 7.16543 26.142 7.16543Z" fill="black"/>
<path d="M34.0539 6.7476V4.51887C34.0539 3.30472 33.3372 2.6377 32.0734 2.6377C31.2668 2.6377 30.7103 2.77728 29.6948 3.0855L29.973 4.30995C30.8986 3.89212 31.3062 3.71319 31.7343 3.71319C32.2514 3.71319 32.481 4.08136 32.481 4.64909V4.68844C30.6794 5.02663 30.122 5.21587 29.7744 5.56438C29.5159 5.82294 29.4062 6.19112 29.4062 6.61926C29.4062 7.64416 30.2026 8.19127 30.9483 8.19127C31.5057 8.19127 31.9535 7.98236 32.5606 7.52424L32.6702 8.08166H34.2422L34.0539 6.7476ZM32.4819 6.78789C32.0641 7.01648 31.8252 7.10641 31.5469 7.10641C31.1684 7.10641 30.9295 6.85721 30.9295 6.45999C30.9295 6.31104 30.9595 6.16114 31.0785 6.04216C31.2678 5.85292 31.6359 5.71333 32.4819 5.51472V6.78789Z" fill="black"/>
</svg>
