<svg width="42" height="11" viewBox="0 0 42 11" fill="none" xmlns="http://www.w3.org/2000/svg">
<path fill-rule="evenodd" clip-rule="evenodd" d="M4.63912 0L0 10.2662H5.55368L6.24217 8.62936H7.81592L8.50441 10.2662H14.6174V9.01692L15.1622 10.2662H18.3243L18.869 8.99051V10.2662H31.5825L33.1284 8.67186L34.5759 10.2662L41.1058 10.2794L36.452 5.16177L41.1058 0H34.6772L33.1723 1.56489L31.7704 0H17.9398L16.7522 2.6498L15.5367 0H9.99459V1.2068L9.37807 0H4.63912ZM5.71376 1.45782H8.42088L11.498 8.4194V1.45782H14.4636L16.8403 6.44924L19.0307 1.45782H21.9814V8.82451H20.186L20.1713 3.05201L17.5537 8.82451H15.9476L13.3154 3.05201V8.82451H9.62172L8.92147 7.17299H5.1383L4.4395 8.82306H2.46048L5.71376 1.45782ZM30.9247 1.45782H23.6241V8.82016H30.8117L33.1284 6.38016L35.3613 8.82016H37.6955L34.3028 5.16032L37.6955 1.45782H35.4626L33.1577 3.8698L30.9247 1.45782ZM7.03075 2.70422L5.78434 5.64626H8.27571L7.03075 2.70422ZM25.4268 4.32787V2.98308V2.98179H29.9822L31.9699 5.13245L29.8941 7.29486H25.4268V5.82674H29.4096V4.32787H25.4268Z" fill="white"/>
</svg>
