<svg width="69" height="64" viewBox="0 0 69 64" fill="none" xmlns="http://www.w3.org/2000/svg">
<rect x="1" y="1" width="67" height="62" rx="14" stroke="#CCD2E3" stroke-width="2" stroke-dasharray="10 10"/>
<path fill-rule="evenodd" clip-rule="evenodd" d="M27.9484 24.285L25.583 24.8764C24.3588 25.1824 23.5 26.2824 23.5 27.5443V39.75C23.5 41.2688 24.7312 42.5 26.25 42.5H42.75C44.2688 42.5 45.5 41.2688 45.5 39.75V27.5443C45.5 26.2824 44.6412 25.1824 43.417 24.8764L41.0516 24.285L38.9364 21.1123C38.6814 20.7298 38.2521 20.5 37.7924 20.5H31.2076C30.7479 20.5 30.3186 20.7298 30.0636 21.1123L27.9484 24.285ZM26.25 21.875L24.9161 22.2085C22.4676 22.8206 20.75 25.0205 20.75 27.5443V39.75C20.75 42.7876 23.2124 45.25 26.25 45.25H42.75C45.7876 45.25 48.25 42.7876 48.25 39.75V27.5443C48.25 25.0205 46.5324 22.8206 44.0839 22.2085L42.75 21.875L41.2246 19.5869C40.4595 18.4393 39.1716 17.75 37.7924 17.75H31.2076C29.8284 17.75 28.5405 18.4393 27.7754 19.5869L26.25 21.875Z" fill="#CCD2E3"/>
<path fill-rule="evenodd" clip-rule="evenodd" d="M40 32.875C40 35.9126 37.5376 38.375 34.5 38.375C31.4624 38.375 29 35.9126 29 32.875C29 29.8374 31.4624 27.375 34.5 27.375C37.5376 27.375 40 29.8374 40 32.875ZM37.25 32.875C37.25 34.3938 36.0188 35.625 34.5 35.625C32.9812 35.625 31.75 34.3938 31.75 32.875C31.75 31.3562 32.9812 30.125 34.5 30.125C36.0188 30.125 37.25 31.3562 37.25 32.875Z" fill="#CCD2E3"/>
<path d="M41.375 30.125C42.1344 30.125 42.75 29.5094 42.75 28.75C42.75 27.9906 42.1344 27.375 41.375 27.375C40.6156 27.375 40 27.9906 40 28.75C40 29.5094 40.6156 30.125 41.375 30.125Z" fill="#CCD2E3"/>
</svg>
