<svg width="451" height="488" viewBox="0 0 451 488" fill="none" xmlns="http://www.w3.org/2000/svg">
<path d="M48.4773 175.226C55.0962 132.588 91.9659 101.244 135.113 101.574L313.777 102.94C356.095 103.264 392.042 133.991 398.947 175.744L433.766 386.306C442.53 439.302 401.648 487.5 347.932 487.5H101.548C48.1791 487.5 7.39076 439.891 15.5776 387.154L48.4773 175.226Z" fill="white"/>
<path d="M124.427 128.886C124.427 113.507 123.645 98.2111 125.508 83.0065C127.372 67.8019 133.569 52.6394 142.605 40.0807C151.642 27.522 163.733 17.3172 177.808 10.3701C191.883 3.42313 207.508 -0.0516067 223.298 0.253692C239.088 0.55899 254.556 4.63489 268.332 12.1204C282.108 19.6059 293.767 30.27 302.275 43.1679C310.784 56.0659 315.88 70.7996 317.112 86.0641C318.344 101.329 317.114 112.007 317.112 129.006L284.51 129.006C284.51 119.507 285.01 101.007 284.51 89.5066C283.715 79.6642 279.023 69.3062 273.537 60.9897C268.05 52.6732 260.533 45.7972 251.65 40.9706C242.768 36.144 232.794 33.5159 222.613 33.319C212.431 33.1222 202.357 35.3626 193.281 39.842C184.206 44.3214 176.409 50.9014 170.583 58.9991C164.756 67.0969 159.71 75.2027 158.508 85.0065C157.307 94.8103 155.508 120.007 157.008 128.886L124.427 128.886Z" fill="#FA1228"/>
<rect x="124" y="160" width="32" height="50" rx="16" fill="#FA1228"/>
<rect x="286" y="160" width="32" height="50" rx="16" fill="#FA1228"/>
<rect x="148.846" y="370.658" width="168.562" height="34.3188" rx="17.1594" transform="rotate(-45.6859 148.846 370.658)" fill="#FA1228"/>
<rect x="268.577" y="393.243" width="168.562" height="35.5832" rx="17.7916" transform="rotate(-135.67 268.577 393.243)" fill="#FA1228"/>
</svg>
