<svg width="38" height="8" viewBox="0 0 38 8" fill="none" xmlns="http://www.w3.org/2000/svg">
<path d="M7.63508 4C7.63508 5.82389 6.22282 7.25 4.5441 7.25C2.86539 7.25 1.45312 5.82389 1.45312 4C1.45312 2.17611 2.86539 0.75 4.5441 0.75C6.22282 0.75 7.63508 2.17611 7.63508 4Z" stroke="#6E768A" stroke-width="1.5"/>
<path d="M22.0394 4C22.0394 5.82389 20.6271 7.25 18.9484 7.25C17.2697 7.25 15.8574 5.82389 15.8574 4C15.8574 2.17611 17.2697 0.75 18.9484 0.75C20.6271 0.75 22.0394 2.17611 22.0394 4Z" stroke="#6E768A" stroke-width="1.5"/>
<path d="M36.4427 4C36.4427 5.82389 35.0304 7.25 33.3517 7.25C31.673 7.25 30.2607 5.82389 30.2607 4C30.2607 2.17611 31.673 0.75 33.3517 0.75C35.0304 0.75 36.4427 2.17611 36.4427 4Z" stroke="#6E768A" stroke-width="1.5"/>
</svg>
