<svg width="32" height="20" viewBox="0 0 32 20" fill="none" xmlns="http://www.w3.org/2000/svg">
<path fill-rule="evenodd" clip-rule="evenodd" d="M15.9375 17.2223C14.2494 18.6791 12.0597 19.5585 9.66701 19.5585C4.32807 19.5585 0 15.1801 0 9.77923C0 4.37831 4.32807 0 9.66701 0C12.0597 0 14.2495 0.879403 15.9375 2.33614C17.6256 0.879403 19.8153 0 22.208 0C27.547 0 31.875 4.37831 31.875 9.77923C31.875 15.1802 27.547 19.5585 22.208 19.5585C19.8153 19.5585 17.6256 18.6791 15.9375 17.2223Z" fill="#ED0006"/>
<path fill-rule="evenodd" clip-rule="evenodd" d="M15.9375 17.2223C18.016 15.4286 19.334 12.7596 19.334 9.77923C19.334 6.79885 18.016 4.12987 15.9375 2.33618C17.6256 0.879418 19.8153 0 22.208 0C27.547 0 31.8751 4.37831 31.8751 9.77923C31.8751 15.1802 27.547 19.5585 22.208 19.5585C19.8153 19.5585 17.6256 18.679 15.9375 17.2223Z" fill="#F9A000"/>
<path fill-rule="evenodd" clip-rule="evenodd" d="M15.9375 17.222C18.016 15.4284 19.3339 12.7594 19.3339 9.77899C19.3339 6.79861 18.016 4.12963 15.9375 2.33594C13.859 4.12963 12.541 6.79861 12.541 9.77899C12.541 12.7594 13.859 15.4284 15.9375 17.222Z" fill="#FF5E00"/>
</svg>
