<svg width="38" height="22" viewBox="0 0 38 22" fill="none" xmlns="http://www.w3.org/2000/svg">
<rect x="1.80762" y="1" width="34.4893" height="20" rx="1" fill="white" stroke="#6E768A" stroke-width="2"/>
<path d="M7.52905 2.5C7.52905 3.88071 6.2393 5 4.64831 5V17C6.2393 17 7.52905 18.1193 7.52905 19.5C7.52905 20.8807 6.2393 22 4.64831 22C3.70584 22 2.86908 21.6072 2.34351 21H1.76758V1H2.34351C2.86908 0.392777 3.70584 0 4.64831 0C6.2393 0 7.52905 1.11929 7.52905 2.5Z" fill="#6E768A"/>
<path d="M33.4559 5C31.8649 5 30.5752 3.88071 30.5752 2.5C30.5752 1.11929 31.8649 0 33.4559 0C34.3984 0 35.2352 0.392777 35.7607 1H36.3367V21H35.7607C35.2352 21.6072 34.3984 22 33.4559 22C31.8649 22 30.5752 20.8807 30.5752 19.5C30.5752 18.1193 31.8649 17 33.4559 17V5Z" fill="#6E768A"/>
<ellipse cx="19.0525" cy="11" rx="5.76147" ry="6" fill="#6E768A"/>
<path d="M19.2043 10.5417C18.296 10.2958 18.004 10.0417 18.004 9.64583C18.004 9.19167 18.4081 8.875 19.0842 8.875C19.7964 8.875 20.0605 9.22917 20.0845 9.75H20.9687C20.9407 9.03333 20.5206 8.375 19.6844 8.1625V7.25H18.4841V8.15C17.7079 8.325 17.0837 8.85 17.0837 9.65417C17.0837 10.6167 17.8479 11.0958 18.9642 11.375C19.9645 11.625 20.1645 11.9917 20.1645 12.3792C20.1645 12.6667 19.9685 13.125 19.0842 13.125C18.26 13.125 17.936 12.7417 17.8919 12.25H17.0117C17.0597 13.1625 17.7159 13.675 18.4841 13.8458V14.75H19.6844V13.8542C20.4646 13.7 21.0848 13.2292 21.0848 12.375C21.0848 11.1917 20.1125 10.7875 19.2043 10.5417Z" fill="white"/>
</svg>
