<svg width="16" height="19" viewBox="0 0 16 19" fill="none" xmlns="http://www.w3.org/2000/svg">
<path fill-rule="evenodd" clip-rule="evenodd" d="M4.47256 18.0175L4.79445 15.9646L4.07739 15.9478H0.65332L3.03293 0.798478C3.04034 0.752604 3.06431 0.710019 3.09931 0.679725C3.13448 0.649431 3.17931 0.632812 3.2262 0.632812H8.99972C10.9166 0.632812 12.2393 1.03321 12.9298 1.82363C13.2536 2.19443 13.4598 2.58202 13.5596 3.00839C13.6643 3.45588 13.666 3.99044 13.5639 4.64254L13.5565 4.68997V5.10786L13.8803 5.29204C14.1529 5.43728 14.3696 5.60347 14.5358 5.79372C14.8127 6.11085 14.9918 6.51385 15.0675 6.99146C15.1458 7.48274 15.1199 8.0675 14.9918 8.72947C14.8441 9.49081 14.6053 10.154 14.2827 10.6965C13.9862 11.1965 13.6082 11.6112 13.1595 11.9325C12.731 12.2379 12.2221 12.4697 11.6466 12.618C11.0888 12.7638 10.453 12.8374 9.75556 12.8374H9.30626C8.98506 12.8374 8.673 12.9535 8.428 13.1618C8.18232 13.3743 8.01991 13.6648 7.97008 13.9825L7.93611 14.1674L7.36733 17.7859L7.34164 17.9186C7.33475 17.9607 7.32302 17.9816 7.30578 17.9958C7.29044 18.0088 7.26837 18.0175 7.24682 18.0175H4.47256" fill="#28356A"/>
<path fill-rule="evenodd" clip-rule="evenodd" d="M14.1869 4.73828C14.1699 4.8489 14.1501 4.96194 14.128 5.07809C13.3666 9.00317 10.7617 10.3591 7.43483 10.3591H5.7409C5.33401 10.3591 4.99108 10.6557 4.92781 11.0587L3.8149 18.1466C3.77369 18.4113 3.97679 18.6497 4.24265 18.6497H7.24708C7.60276 18.6497 7.90499 18.3902 7.96103 18.0379L7.99051 17.8847L8.55619 14.2804L8.59257 14.0827C8.64791 13.7292 8.95084 13.4696 9.30652 13.4696H9.75582C12.6666 13.4696 14.9454 12.2831 15.6114 8.84928C15.8895 7.41489 15.7455 6.21715 15.0093 5.3748C14.7866 5.12085 14.5102 4.91001 14.1869 4.73828" fill="#298FC2"/>
<path fill-rule="evenodd" clip-rule="evenodd" d="M13.3895 4.41989C13.2732 4.38578 13.1532 4.35497 13.0301 4.3271C12.9063 4.29992 12.7795 4.27586 12.649 4.25474C12.1923 4.18065 11.6918 4.14551 11.1558 4.14551H6.63052C6.51897 4.14551 6.41311 4.17078 6.31846 4.21648C6.10967 4.31723 5.95467 4.51562 5.91708 4.75849L4.95434 10.8807L4.92676 11.0591C4.99003 10.6561 5.33296 10.3596 5.73985 10.3596H7.43378C10.7606 10.3596 13.3656 9.00295 14.1269 5.07857C14.1497 4.96241 14.1688 4.84937 14.1859 4.73875C13.9933 4.6361 13.7847 4.54833 13.56 4.47355C13.5045 4.45503 13.4473 4.4372 13.3895 4.41989" fill="#22284F"/>
<path fill-rule="evenodd" clip-rule="evenodd" d="M5.9176 4.75808C5.95518 4.5152 6.11018 4.31682 6.31897 4.21676C6.41431 4.17089 6.51948 4.14562 6.63103 4.14562H11.1563C11.6923 4.14562 12.1928 4.18093 12.6495 4.25502C12.7801 4.27597 12.9068 4.3002 13.0306 4.32738C13.1537 4.35508 13.2737 4.38606 13.39 4.41999C13.4478 4.43731 13.505 4.45531 13.5611 4.47314C13.7857 4.54792 13.9945 4.63638 14.1871 4.73834C14.4136 3.28786 14.1852 2.30027 13.4042 1.40599C12.543 0.421348 10.9889 0 9.00012 0H3.22644C2.82024 0 2.47369 0.296536 2.41094 0.700226L0.0061544 16.0053C-0.0412585 16.3081 0.191323 16.5813 0.495456 16.5813H4.05987L5.9176 4.75808" fill="#28356A"/>
</svg>
