<svg width="10" height="10" viewBox="0 0 10 10" fill="none" xmlns="http://www.w3.org/2000/svg">
<path fill-rule="evenodd" clip-rule="evenodd" d="M5.93007 1.08164L7.05744 3.45977L9.36616 3.70466C9.6052 3.72785 9.80639 3.89346 9.8751 4.12358C9.94382 4.3537 9.86636 4.60251 9.67917 4.75297L7.83837 6.26662L8.40783 8.81122C8.45986 9.04244 8.36866 9.28236 8.17618 9.42062C7.9837 9.55889 7.72721 9.56872 7.52471 9.44561L5.39596 8.15049L3.26528 9.44497C3.06268 9.56784 2.8063 9.55791 2.61381 9.41974C2.42133 9.28157 2.3299 9.04184 2.38151 8.81058L2.95355 6.26662L1.11274 4.75297C0.926896 4.60212 0.85046 4.35403 0.919188 4.12475C0.987915 3.89547 1.18822 3.73033 1.4264 3.70659L3.73448 3.4617L4.86184 1.08164C4.95979 0.875446 5.16768 0.744049 5.39596 0.744049C5.62423 0.744049 5.83212 0.875446 5.93007 1.08164Z" fill="#33302E"/>
</svg>
