<svg width="69" height="64" viewBox="0 0 69 64" fill="none" xmlns="http://www.w3.org/2000/svg">
<rect x="1" y="1" width="67" height="62" rx="14" stroke="#CCD2E3" stroke-width="2" stroke-dasharray="10 10"/>
<path d="M21.375 31.0417C21.375 25.5419 21.375 22.7921 23.0835 21.0835C24.7921 19.375 27.5419 19.375 33.0417 19.375H35.9583C41.4581 19.375 44.2079 19.375 45.9165 21.0835C47.625 22.7921 47.625 25.5419 47.625 31.0417V33.9583C47.625 39.4581 47.625 42.2079 45.9165 43.9165C44.2079 45.625 41.4581 45.625 35.9583 45.625H33.0417C27.5419 45.625 24.7921 45.625 23.0835 43.9165C21.375 42.2079 21.375 39.4581 21.375 33.9583V31.0417Z" stroke="#CCD2E3" stroke-width="2"/>
<path fill-rule="evenodd" clip-rule="evenodd" d="M44.7083 34.8121L44.6785 34.7823C44.1103 34.2141 43.6201 33.7239 43.1826 33.3551C42.7204 32.9656 42.2173 32.6231 41.5972 32.436C40.7731 32.1874 39.8939 32.1874 39.0698 32.436C38.4497 32.6231 37.9466 32.9656 37.4845 33.3551C37.0469 33.7239 36.5568 34.2141 35.9886 34.7823L35.9886 34.7823L35.947 34.8239C35.4995 35.2714 35.2361 35.5326 35.0318 35.7016C35.0214 35.7102 35.0116 35.7181 35.0024 35.7255C34.9965 35.7152 34.9904 35.7042 34.9839 35.6924C34.857 35.4596 34.7094 35.1193 34.4602 34.5376L34.3823 34.3559L34.3501 34.2807C33.831 33.0694 33.3951 32.0522 32.9637 31.2857C32.5192 30.4958 31.9653 29.7551 31.102 29.3223C30.3819 28.9613 29.5761 28.8062 28.7735 28.8739C27.8111 28.9551 27.0218 29.4371 26.3158 30.0054C25.7247 30.4812 25.0613 31.1288 24.292 31.8959V33.9581C24.292 34.7117 24.2924 35.3943 24.2965 36.0159L25.9208 34.3916C26.9258 33.3865 27.597 32.7182 28.1446 32.2775C28.6855 31.8421 28.9182 31.7887 29.0187 31.7802C29.2863 31.7577 29.5549 31.8094 29.7949 31.9297C29.8851 31.9749 30.0813 32.111 30.4219 32.7161C30.7666 33.3286 31.1415 34.1984 31.7014 35.5048L31.7793 35.6865L31.8031 35.7421C32.0203 36.2489 32.222 36.7198 32.4234 37.089C32.6344 37.4759 32.9409 37.9393 33.457 38.2588C34.0656 38.6355 34.7914 38.7753 35.4963 38.6516C36.0942 38.5466 36.5509 38.2301 36.8905 37.9493C37.2146 37.6813 37.5767 37.3191 37.9666 36.9291L37.9666 36.9291L38.0094 36.8863C38.6309 36.2648 39.0331 35.8643 39.3641 35.5854C39.6811 35.3182 39.8307 35.253 39.9123 35.2284C40.187 35.1455 40.48 35.1455 40.7547 35.2284C40.8363 35.253 40.9859 35.3182 41.3029 35.5854C41.6339 35.8643 42.0361 36.2648 42.6577 36.8863L44.6272 38.8558C44.6943 37.809 44.7062 36.5075 44.7083 34.8121Z" fill="#CCD2E3"/>
<circle cx="41.0625" cy="25.9375" r="2.1875" fill="#CCD2E3"/>
</svg>
