<svg width="35" height="11" viewBox="0 0 35 11" fill="none" xmlns="http://www.w3.org/2000/svg">
<path fill-rule="evenodd" clip-rule="evenodd" d="M8.57536 10.8615H5.60691L3.38094 2.36932C3.27528 1.97868 3.05095 1.63333 2.72096 1.47056C1.89743 1.06152 0.989966 0.735985 0 0.571802V0.244851H4.78194C5.44192 0.244851 5.9369 0.735985 6.0194 1.30638L7.17436 7.4321L10.1414 0.244851H13.0273L8.57536 10.8615ZM14.6773 10.8615H11.8739L14.1823 0.244851H16.9858L14.6773 10.8615ZM20.6126 3.186C20.6951 2.61419 21.1901 2.28724 21.7676 2.28724C22.6751 2.20515 23.6636 2.36933 24.4886 2.77696L24.9835 0.491134C24.1586 0.164183 23.2511 0 22.4276 0C19.7066 0 17.7267 1.47057 17.7267 3.51153C17.7267 5.0642 19.1291 5.87945 20.1191 6.37058C21.1901 6.8603 21.6026 7.18725 21.5201 7.67697C21.5201 8.41155 20.6951 8.7385 19.8716 8.7385C18.8816 8.7385 17.8917 8.49364 16.9857 8.0846L16.4907 10.3718C17.4806 10.7795 18.5517 10.9436 19.5416 10.9436C22.5926 11.0243 24.4886 9.55517 24.4886 7.35002C24.4886 4.57306 20.6126 4.41029 20.6126 3.186V3.186ZM34.3 10.8615L32.0741 0.244851H29.6831C29.1881 0.244851 28.6931 0.571802 28.5281 1.06152L24.4062 10.8615H27.2921L27.8682 9.3103H31.4141L31.7441 10.8615H34.3ZM30.0956 3.10391L30.9191 7.10516H28.6106L30.0956 3.10391Z" fill="#172B85"/>
</svg>
